<svg xmlns="http://www.w3.org/2000/svg" width="391" height="475" fill="none" viewBox="-40 -48 471 571"><style>path{fill:#1a1a1a}@media (prefers-color-scheme:dark){path{fill:#fff}}</style><path d="M165.3 0H225a20 20 0 0 1 20 20v31.9a10 10 0 0 0 10 10h25.6a20 20 0 0 1 20 20v37.65a10 10 0 0 0 10 10h16.05a20 20 0 0 1 20 20v42.65a10 10 0 0 0 10 10h13.65a20 20 0 0 1 20 20v56.66a195.15 195.15 0 0 1-390.3 0V222.2a20 20 0 0 1 20-20h13.65a10 10 0 0 0 10-10v-42.65a20 20 0 0 1 20-20H79.7a10 10 0 0 0 10-10V81.9a20 20 0 0 1 20-20h25.6a10 10 0 0 0 10-10V20a20 20 0 0 1 20-20m124.712 256.342c-6.661 0-11.985 3.47-11.985 13.245 0 37.806-27.752 87.359-79.473 87.359-10.092 0-13.245 4.905-13.245 11.451v38.692c0 12.932 8.747 12.932 18.104 12.932 72.351 0 137.689-70.33 139.24-152.464h-.017c.357-6.774-5.318-12.477-12.044-12.477z"/></svg>